<svg width="40" height="40" viewBox="0 0 40 40" fill="none" xmlns="http://www.w3.org/2000/svg">
<path d="M12.7465 10.3861C12.8449 10.5501 12.8544 10.7531 12.7728 10.9261L8.53845 19.9056C8.38464 20.2318 7.97163 20.337 7.68103 20.1234L1.95837 15.9174C1.7499 15.7641 1.6741 15.4994 1.76501 15.2699C2.25385 14.0357 3.31139 11.473 4.58142 9.02478C5.21665 7.80027 5.8996 6.61466 6.5863 5.64197C7.28216 4.65635 7.94725 3.94086 8.53162 3.59802C8.5706 3.57516 8.60549 3.55646 8.63611 3.54041L12.7465 10.3861Z" fill="#F5F5F0" stroke="#2F2E0C" stroke-linejoin="round"/>
<path d="M26.96 10.2955C26.8615 10.4595 26.852 10.6625 26.9336 10.8356L31.168 19.815C31.3218 20.1412 31.7348 20.2464 32.0254 20.0328L37.748 15.8268C37.9565 15.6736 38.0323 15.4089 37.9414 15.1793C37.4526 13.9451 36.395 11.3824 35.125 8.93419C34.4898 7.70968 33.8068 6.52407 33.1201 5.55138C32.4243 4.56576 31.7592 3.85027 31.1748 3.50743C31.1358 3.48457 31.1009 3.46587 31.0703 3.44981L26.96 10.2955Z" fill="#F5F5F0" stroke="#2F2E0C" stroke-linejoin="round"/>
<path d="M19.1827 1.50488H26.5929C26.6601 1.50488 26.7273 1.51847 26.7902 1.54492C28.1806 2.1312 29.9696 2.85144 30.8947 3.22168C31.0829 3.29711 31.2076 3.47775 31.212 3.67969L31.4562 14.8174V37.9971C31.4562 38.2746 31.2317 38.4998 30.9542 38.5H8.39075C8.11314 38.5 7.88782 38.2747 7.88782 37.9971V14.8174L8.13196 3.67969C8.1364 3.47769 8.26197 3.29707 8.45032 3.22168C9.37596 2.85119 11.1661 2.13033 12.5568 1.54395C12.6195 1.51754 12.684 1.50415 12.7491 1.50391C13.4029 1.50149 15.6464 1.49527 19.1827 1.50488Z" fill="#F5F5F0" stroke="#2F2E0C" stroke-linejoin="round"/>
<rect x="13.2" y="8" width="13" height="16" fill="#A8A794"/>
</svg>
