<svg width="40" height="40" viewBox="0 0 40 40" fill="none" xmlns="http://www.w3.org/2000/svg">
<g clip-path="url(#clip0_130_713)">
<mask id="path-1-inside-1_130_713" fill="white">
<path fill-rule="evenodd" clip-rule="evenodd" d="M29.094 40H0V2.01505C0.026063 2.00954 0.0533867 2.00659 0.0818634 2.00648C0.679066 2.00428 2.15826 1.99987 4.41959 2C5.91185 1.99992 7.76041 2.0018 9.93474 2.00771L20.8507 2.00771L20.8602 2.00781H21.0488C21.2505 2.00781 21.4502 2.04847 21.636 2.12685C23.7149 3.00337 26.3922 4.08147 27.7794 4.63671C28.0822 4.75791 28.3303 4.97024 28.4966 5.23502C32.5381 7.88001 37.3176 19.3313 38.7679 22.9932C39.0331 23.6627 38.806 24.4181 38.2258 24.8445L29.6411 31.1535C29.4705 31.2788 29.2849 31.3651 29.094 31.4149V40Z"/>
</mask>
<path fill-rule="evenodd" clip-rule="evenodd" d="M29.094 40H0V2.01505C0.026063 2.00954 0.0533867 2.00659 0.0818634 2.00648C0.679066 2.00428 2.15826 1.99987 4.41959 2C5.91185 1.99992 7.76041 2.0018 9.93474 2.00771L20.8507 2.00771L20.8602 2.00781H21.0488C21.2505 2.00781 21.4502 2.04847 21.636 2.12685C23.7149 3.00337 26.3922 4.08147 27.7794 4.63671C28.0822 4.75791 28.3303 4.97024 28.4966 5.23502C32.5381 7.88001 37.3176 19.3313 38.7679 22.9932C39.0331 23.6627 38.806 24.4181 38.2258 24.8445L29.6411 31.1535C29.4705 31.2788 29.2849 31.3651 29.094 31.4149V40Z" fill="#F1F1ED"/>
<path d="M29.094 40V41C29.6463 41 30.094 40.5523 30.094 40H29.094ZM0 40H-1C-1 40.5523 -0.552285 41 0 41L0 40ZM0 2.01505L-0.206785 1.03666C-0.669161 1.13438 -1 1.54246 -1 2.01505H0ZM0.0818634 2.00648L0.0781706 1.00649H0.0781706L0.0818634 2.00648ZM4.41959 2L4.41954 3H4.41965L4.41959 2ZM9.93474 2.00771L9.93202 3.00771H9.93474V2.00771ZM20.8507 2.00771L20.8619 1.00771H20.8507V2.00771ZM20.8602 2.00781L20.849 3.00781H20.8602V2.00781ZM21.636 2.12685L22.0246 1.2054L22.0246 1.2054L21.636 2.12685ZM27.7794 4.63671L28.151 3.70831L28.151 3.70831L27.7794 4.63671ZM28.4966 5.23502L27.6498 5.7669C27.7264 5.88888 27.8285 5.99287 27.949 6.07175L28.4966 5.23502ZM38.7679 22.9932L37.8382 23.3614V23.3614L38.7679 22.9932ZM38.2258 24.8445L38.8179 25.6503H38.8179L38.2258 24.8445ZM29.6411 31.1535L30.2333 31.9593L30.2333 31.9593L29.6411 31.1535ZM29.094 31.4149L28.8418 30.4472C28.4014 30.562 28.094 30.9597 28.094 31.4149H29.094ZM29.094 39H0V41H29.094V39ZM1 40V2.01505H-1V40H1ZM0.206785 2.99343C0.164899 3.00229 0.124134 3.00633 0.0855562 3.00647L0.0781706 1.00649C-0.0173609 1.00684 -0.112773 1.01679 -0.206785 1.03666L0.206785 2.99343ZM0.0855562 3.00647C0.681581 3.00427 2.15953 2.99987 4.41954 3L4.41965 1C2.157 0.999871 0.676551 1.00428 0.0781706 1.00649L0.0855562 3.00647ZM4.41965 3C5.91102 2.99992 7.75865 3.0018 9.93202 3.0077L9.93746 1.00771C7.76216 1.0018 5.91268 0.999915 4.41953 1L4.41965 3ZM9.93474 3.00771H20.8507V1.00771L9.93474 1.00771V3.00771ZM20.8396 3.00764L20.849 3.00775L20.8713 1.00787L20.8619 1.00777L20.8396 3.00764ZM20.8602 3.00781H21.0488V1.00781H20.8602V3.00781ZM21.0488 3.00781C21.1161 3.00781 21.1837 3.02138 21.2475 3.04829L22.0246 1.2054C21.7166 1.07557 21.385 1.00781 21.0488 1.00781V3.00781ZM21.2475 3.04829C23.3355 3.92866 26.0202 5.0097 27.4078 5.5651L28.151 3.70831C26.7642 3.15324 24.0943 2.07808 22.0246 1.2054L21.2475 3.04829ZM27.4078 5.5651C27.5101 5.60605 27.5936 5.67741 27.6498 5.7669L29.3434 4.70313C29.067 4.26307 28.6543 3.90976 28.151 3.70831L27.4078 5.5651ZM27.949 6.07175C28.7926 6.62385 29.7597 7.70378 30.78 9.17937C31.7854 10.6334 32.7849 12.3858 33.715 14.1908C35.5744 17.7994 37.1179 21.5429 37.8382 23.3614L39.6977 22.6249C38.9676 20.7816 37.3962 16.9685 35.4929 13.2747C34.5416 11.4286 33.4978 9.59336 32.4251 8.0419C31.3672 6.51203 30.2214 5.16868 29.0442 4.39828L27.949 6.07175ZM37.8382 23.3614C37.9317 23.5974 37.8571 23.8745 37.6336 24.0387L38.8179 25.6503C39.7549 24.9618 40.1345 23.7279 39.6977 22.6249L37.8382 23.3614ZM37.6336 24.0387L29.0489 30.3477L30.2333 31.9593L38.8179 25.6503L37.6336 24.0387ZM29.0489 30.3477C28.9818 30.397 28.9118 30.429 28.8418 30.4472L29.3462 32.3825C29.658 32.3013 29.9593 32.1606 30.2333 31.9593L29.0489 30.3477ZM28.094 31.4149V40H30.094V31.4149H28.094Z" fill="#2F2E0C" mask="url(#path-1-inside-1_130_713)"/>
<path d="M30 18L34.5289 15.1749L37.4998 21.5L32.9999 24.5L30 18Z" fill="#A8A794"/>
<path d="M-7.25879 31.292C-7.2589 31.1327 -7.33538 30.9828 -7.46387 30.8887L-7.46777 30.8857L-16.0518 24.5771C-16.4534 24.2818 -16.604 23.7661 -16.4248 23.3135C-15.7478 21.6043 -14.3439 18.1945 -12.6309 14.7852C-10.9062 11.3527 -8.90783 8.00246 -7.05762 6.34473C-6.95721 6.25478 -6.89729 6.12785 -6.8916 5.99316C-6.87492 5.59823 -6.62775 5.24829 -6.25879 5.10059C-4.87062 4.54497 -2.18739 3.46464 -0.103516 2.58594C-0.0639729 2.56926 -0.0236364 2.55533 0.0166016 2.54395C0.0480694 2.53503 0.077371 2.5207 0.106445 2.50586C0.71733 2.50363 2.18745 2.49987 4.41992 2.5C5.91168 2.49991 7.75989 2.50191 9.93359 2.50781H21.0488C21.1833 2.50781 21.3166 2.53531 21.4414 2.58789C23.5248 3.46634 26.2063 4.54526 27.5938 5.10059C27.7963 5.18166 27.962 5.32384 28.0732 5.50098C28.1115 5.56191 28.1625 5.6139 28.2227 5.65332C29.1496 6.25996 30.1618 7.4055 31.1914 8.89453C32.2136 10.3729 33.2238 12.1466 34.1592 13.9619C36.0296 17.5918 37.58 21.353 38.3027 23.1777C38.4819 23.6303 38.3314 24.1461 37.9297 24.4414L29.3447 30.751C29.226 30.8382 29.0981 30.8967 28.9678 30.9307C28.7476 30.9881 28.5938 31.1875 28.5938 31.415V57.4961C28.5937 58.0505 28.1443 58.5 27.5898 58.5H-6.25488C-6.80931 58.5 -7.25871 58.0505 -7.25879 57.4961V31.292Z" stroke="#2F2E0C" stroke-linejoin="round"/>
<path d="M9.93335 2.50781H21.0486C21.1831 2.50781 21.3173 2.53525 21.4421 2.58789C23.5254 3.46626 26.2061 4.54527 27.5935 5.10059C27.9688 5.25081 28.2184 5.61035 28.2273 6.01367L28.5945 22.7207V57.4961C28.5944 58.0505 28.1441 58.5 27.5896 58.5H-6.25513C-6.80953 58.5 -7.25895 58.0505 -7.25903 57.4961V22.7207L-6.89185 6.01367C-6.88296 5.6104 -6.63423 5.25089 -6.25903 5.10059C-4.87082 4.54495 -2.18668 3.46466 -0.102783 2.58594C0.0211689 2.53373 0.150447 2.50732 0.281982 2.50684C1.26309 2.50321 4.62814 2.49339 9.93335 2.50781Z" stroke="#2F2E0C" stroke-linejoin="round"/>
<path d="M9.73572 2.50781H20.7533C19.842 7.40171 15.5795 11.1006 10.4652 11.1006C5.35037 11.1004 1.08761 7.40064 0.177124 2.50586C1.26566 2.50203 4.58735 2.49382 9.73572 2.50781Z" stroke="#2F2E0C" stroke-linejoin="round"/>
</g>
<defs>
<clipPath id="clip0_130_713">
<rect width="40" height="40" fill="white"/>
</clipPath>
</defs>
</svg>
