<svg width="40" height="40" viewBox="0 0 40 40" fill="none" xmlns="http://www.w3.org/2000/svg">
<g clip-path="url(#clip0_130_652)">
<mask id="path-1-inside-1_130_652" fill="white">
<path fill-rule="evenodd" clip-rule="evenodd" d="M39.9109 4.86929V40H-0.0891113V5.03045C1.64619 4.33483 4.61613 3.1361 6.95384 2.15035C7.02372 2.12089 7.09494 2.09586 7.16724 2.0754C7.23634 2.0329 7.31779 2.00816 7.40912 2.00782C8.12577 2.00518 9.9008 1.99989 12.6144 2.00005C14.4051 1.99994 16.6234 2.0022 19.2326 2.00929L32.3318 2.00929L32.3431 2.00942H32.5695C32.8115 2.00942 33.0511 2.05821 33.2741 2.15226C35.4393 3.06518 38.1455 4.16032 39.9109 4.86929Z"/>
</mask>
<path fill-rule="evenodd" clip-rule="evenodd" d="M39.9109 4.86929V40H-0.0891113V5.03045C1.64619 4.33483 4.61613 3.1361 6.95384 2.15035C7.02372 2.12089 7.09494 2.09586 7.16724 2.0754C7.23634 2.0329 7.31779 2.00816 7.40912 2.00782C8.12577 2.00518 9.9008 1.99989 12.6144 2.00005C14.4051 1.99994 16.6234 2.0022 19.2326 2.00929L32.3318 2.00929L32.3431 2.00942H32.5695C32.8115 2.00942 33.0511 2.05821 33.2741 2.15226C35.4393 3.06518 38.1455 4.16032 39.9109 4.86929Z" fill="#F1F1ED"/>
<path d="M39.9109 4.86929H40.9109C40.9109 4.46089 40.6625 4.09352 40.2836 3.94133L39.9109 4.86929ZM39.9109 40V41C40.4632 41 40.9109 40.5523 40.9109 40H39.9109ZM-0.0891113 40H-1.08911C-1.08911 40.5523 -0.641396 41 -0.0891113 41L-0.0891113 40ZM-0.0891113 5.03045L-0.461194 4.10225C-0.840487 4.25429 -1.08911 4.62182 -1.08911 5.03045H-0.0891113ZM6.95384 2.15035L6.5653 1.22892L6.5653 1.22892L6.95384 2.15035ZM7.16724 2.0754L7.43957 3.0376C7.52809 3.01255 7.61273 2.9754 7.69109 2.92721L7.16724 2.0754ZM7.40912 2.00782L7.41282 3.00782L7.40912 2.00782ZM12.6144 2.00005L12.6143 3.00005H12.6145L12.6144 2.00005ZM19.2326 2.00929L19.2299 3.00929H19.2326V2.00929ZM32.3318 2.00929L32.3429 1.00929H32.3318V2.00929ZM32.3431 2.00942L32.3319 3.00942H32.3431V2.00942ZM33.2741 2.15226L33.6627 1.23082L33.6626 1.23082L33.2741 2.15226ZM38.9109 4.86929V40H40.9109V4.86929H38.9109ZM39.9109 39H-0.0891113V41H39.9109V39ZM0.910889 40V5.03045H-1.08911V40H0.910889ZM0.282971 5.95865C2.01891 5.26277 4.99589 4.06123 7.34238 3.07179L6.5653 1.22892C4.23637 2.21096 1.27347 3.40688 -0.461194 4.10225L0.282971 5.95865ZM7.34238 3.07179C7.37488 3.05808 7.4073 3.04673 7.43957 3.0376L6.8949 1.11319C6.78257 1.14499 6.67257 1.18369 6.5653 1.22892L7.34238 3.07179ZM7.69109 2.92721C7.6044 2.98052 7.506 3.00747 7.41282 3.00782L7.40543 1.00783C7.12958 1.00885 6.86828 1.08528 6.64339 1.22359L7.69109 2.92721ZM7.41282 3.00782C8.12828 3.00517 9.90207 2.99989 12.6143 3.00005L12.6145 1.00005C9.89954 0.999891 8.12325 1.00518 7.40543 1.00783L7.41282 3.00782ZM12.6145 3.00005C14.4043 2.99994 16.6216 3.0022 19.2299 3.00929L19.2353 1.0093C16.6251 1.0022 14.4059 0.999944 12.6143 1.00005L12.6145 3.00005ZM19.2326 3.00929L32.3318 3.00929V1.00929H19.2326V3.00929ZM32.3206 3.00923L32.3319 3.00936L32.3542 1.00948L32.3429 1.00935L32.3206 3.00923ZM32.3431 3.00942H32.5695V1.00942H32.3431V3.00942ZM32.5695 3.00942C32.6771 3.00942 32.7846 3.03112 32.8856 3.0737L33.6626 1.23082C33.3175 1.08531 32.946 1.00942 32.5695 1.00942V3.00942ZM32.8856 3.0737C35.0591 3.99014 37.7719 5.08794 39.5382 5.79726L40.2836 3.94133C38.519 3.23271 35.8195 2.14022 33.6627 1.23082L32.8856 3.0737Z" fill="#2F2E0C" mask="url(#path-1-inside-1_130_652)"/>
<path d="M19.2314 2.50879H19.2344C19.2722 2.50869 19.3101 2.50958 19.3477 2.50977H32.5693C32.7442 2.50977 32.918 2.54496 33.0801 2.61328C35.579 3.66692 38.795 4.96154 40.46 5.62793C40.9475 5.82308 41.2717 6.29023 41.2832 6.81445L41.7236 26.8633V68.5957C41.7234 69.3161 41.1394 69.9004 40.4189 69.9004L-0.195312 69.8994C-0.915879 69.8994 -1.5 69.3153 -1.5 68.5947V26.8623L-1.05957 6.81445C-1.04805 6.29023 -0.723902 5.82308 -0.236328 5.62793C1.42959 4.96114 4.64885 3.66533 7.14844 2.61133C7.3091 2.54361 7.47706 2.50848 7.64844 2.50781C8.82576 2.50346 12.8646 2.49149 19.2314 2.50879Z" stroke="#2F2E0C" stroke-linejoin="round"/>
<path d="M19.0828 2.50879H32.4011C32.4038 2.51446 32.4078 2.52192 32.4099 2.53223C32.4133 2.5488 32.4136 2.56864 32.4099 2.58887C31.3232 8.52679 26.159 13.0205 19.9587 13.0205C13.76 13.0205 8.59698 8.52856 7.50854 2.59277C7.50476 2.57187 7.50509 2.5515 7.50854 2.53418C7.51102 2.52193 7.51517 2.51305 7.51831 2.50684C8.71851 2.50244 12.7482 2.49157 19.0828 2.50879Z" stroke="#2F2E0C" stroke-linejoin="round"/>
<path d="M15 5H25V10H15V5Z" fill="#A8A794"/>
</g>
<defs>
<clipPath id="clip0_130_652">
<rect width="40" height="40" fill="white"/>
</clipPath>
</defs>
</svg>
