<svg width="40" height="40" viewBox="0 0 40 40" fill="none" xmlns="http://www.w3.org/2000/svg">
<g clip-path="url(#clip0_130_681)">
<mask id="path-1-inside-1_130_681" fill="white">
<path fill-rule="evenodd" clip-rule="evenodd" d="M40 2.00781V40H11.241L11.241 31.2923L11.2368 31.2893L2.6522 24.9804C2.07197 24.554 1.84484 23.7985 2.11 23.1291C3.46894 19.698 7.75037 9.42902 11.6091 5.97209C11.634 5.38045 12.004 4.85736 12.5556 4.6366C13.9436 4.08105 16.6231 3.00205 18.7025 2.12526C18.7607 2.1007 18.82 2.07985 18.8803 2.06279C18.9379 2.02738 19.0058 2.00676 19.0819 2.00648C19.6791 2.00428 21.1583 1.99987 23.4196 2C24.9118 1.99992 26.7604 2.0018 28.9347 2.00771L39.8507 2.00771L39.8602 2.00781H40Z"/>
</mask>
<path fill-rule="evenodd" clip-rule="evenodd" d="M40 2.00781V40H11.241L11.241 31.2923L11.2368 31.2893L2.6522 24.9804C2.07197 24.554 1.84484 23.7985 2.11 23.1291C3.46894 19.698 7.75037 9.42902 11.6091 5.97209C11.634 5.38045 12.004 4.85736 12.5556 4.6366C13.9436 4.08105 16.6231 3.00205 18.7025 2.12526C18.7607 2.1007 18.82 2.07985 18.8803 2.06279C18.9379 2.02738 19.0058 2.00676 19.0819 2.00648C19.6791 2.00428 21.1583 1.99987 23.4196 2C24.9118 1.99992 26.7604 2.0018 28.9347 2.00771L39.8507 2.00771L39.8602 2.00781H40Z" fill="#F1F1ED"/>
<path d="M40 2.00781H41C41 1.45553 40.5523 1.00781 40 1.00781V2.00781ZM40 40V41C40.5523 41 41 40.5523 41 40H40ZM11.241 40H10.241C10.241 40.2652 10.3463 40.5196 10.5338 40.7071C10.7214 40.8946 10.9757 41 11.241 41V40ZM11.241 31.2923H12.241C12.241 30.9736 12.089 30.6739 11.8318 30.4856L11.241 31.2923ZM11.2368 31.2893L10.6447 32.0951L10.646 32.0961L11.2368 31.2893ZM2.6522 24.9804L3.24439 24.1746H3.24439L2.6522 24.9804ZM2.11 23.1291L3.03973 23.4973H3.03973L2.11 23.1291ZM11.6091 5.97209L12.2763 6.71691C12.4771 6.53701 12.5968 6.28365 12.6082 6.01429L11.6091 5.97209ZM12.5556 4.6366L12.184 3.7082L12.184 3.7082L12.5556 4.6366ZM18.7025 2.12526L18.3139 1.20382L18.3139 1.20383L18.7025 2.12526ZM18.8803 2.06279L19.1526 3.025C19.2411 2.99994 19.3258 2.9628 19.4041 2.91461L18.8803 2.06279ZM19.0819 2.00648L19.0782 1.00649L19.0819 2.00648ZM23.4196 2L23.4195 3H23.4197L23.4196 2ZM28.9347 2.00771L28.932 3.00771H28.9347V2.00771ZM39.8507 2.00771L39.8619 1.00771H39.8507V2.00771ZM39.8602 2.00781L39.849 3.00781H39.8602V2.00781ZM39 2.00781V40H41V2.00781H39ZM40 39H11.241V41H40V39ZM12.241 40L12.241 31.2923H10.241L10.241 40H12.241ZM11.8318 30.4856L11.8277 30.4826L10.646 32.0961L10.6501 32.0991L11.8318 30.4856ZM11.829 30.4835L3.24439 24.1746L2.06001 25.7862L10.6447 32.0951L11.829 30.4835ZM3.24439 24.1746C3.02084 24.0103 2.94628 23.7332 3.03973 23.4973L1.18027 22.7608C0.743408 23.8638 1.1231 25.0977 2.06001 25.7862L3.24439 24.1746ZM3.03973 23.4973C3.71424 21.7943 5.112 18.3999 6.81567 15.0093C8.54261 11.5723 10.5051 8.30373 12.2763 6.71691L10.9418 5.22727C8.85435 7.09737 6.74676 10.6918 5.02858 14.1113C3.28713 17.5772 1.8647 21.0328 1.18027 22.7608L3.03973 23.4973ZM12.6082 6.01429C12.6165 5.81601 12.7407 5.63962 12.9272 5.565L12.184 3.7082C11.2673 4.07509 10.6516 4.94489 10.61 5.9299L12.6082 6.01429ZM12.9272 5.565C14.3156 5.00928 17.0025 3.92734 19.091 3.04669L18.3139 1.20383C16.2437 2.07676 13.5716 3.15282 12.184 3.7082L12.9272 5.565ZM19.091 3.04669C19.1119 3.0379 19.1324 3.03072 19.1526 3.025L18.608 1.10059C18.5077 1.12897 18.4095 1.16351 18.3139 1.20382L19.091 3.04669ZM19.4041 2.91461C19.3059 2.975 19.194 3.00607 19.0856 3.00647L19.0782 1.00649C18.8175 1.00745 18.5698 1.07976 18.3564 1.21098L19.4041 2.91461ZM19.0856 3.00647C19.6816 3.00427 21.1595 2.99987 23.4195 3L23.4197 1C21.157 0.999871 19.6765 1.00428 19.0782 1.00649L19.0856 3.00647ZM23.4197 3C24.911 2.99992 26.7587 3.0018 28.932 3.0077L28.9375 1.00771C26.7622 1.0018 24.9127 0.999915 23.4195 1L23.4197 3ZM28.9347 3.00771H39.8507V1.00771L28.9347 1.00771V3.00771ZM39.8396 3.00764L39.849 3.00775L39.8713 1.00787L39.8619 1.00777L39.8396 3.00764ZM39.8602 3.00781H40V1.00781H39.8602V3.00781Z" fill="#2F2E0C" mask="url(#path-1-inside-1_130_681)"/>
<path d="M28.9333 2.50781H40.0486C40.1831 2.50781 40.3173 2.53525 40.4421 2.58789C42.5254 3.46626 45.2061 4.54527 46.5935 5.10059C46.9688 5.25081 47.2184 5.61035 47.2273 6.01367L47.5945 22.7207V57.4961C47.5944 58.0505 47.1441 58.5 46.5896 58.5H12.7449C12.1905 58.5 11.741 58.0505 11.741 57.4961V22.7207L12.1082 6.01367C12.117 5.6104 12.3658 5.25089 12.741 5.10059C14.1292 4.54495 16.8133 3.46466 18.8972 2.58594C19.0212 2.53373 19.1504 2.50732 19.282 2.50684C20.2631 2.50321 23.6281 2.49339 28.9333 2.50781Z" stroke="#2F2E0C" stroke-linejoin="round"/>
<path d="M10.5287 18L5.99978 15.175L3.02888 21.5L7.52881 24.5L10.5287 18Z" fill="#A8A794"/>
<path d="M11.7412 31.292C11.7411 31.1327 11.6646 30.9828 11.5361 30.8887L11.5322 30.8857L2.94824 24.5771C2.54655 24.2818 2.39601 23.7661 2.5752 23.3135C3.25217 21.6043 4.65607 18.1945 6.36914 14.7852C8.0938 11.3527 10.0922 8.00246 11.9424 6.34473C12.0428 6.25478 12.1027 6.12785 12.1084 5.99316C12.1251 5.59823 12.3723 5.24829 12.7412 5.10059C14.1294 4.54497 16.8126 3.46464 18.8965 2.58594C18.936 2.56926 18.9764 2.55533 19.0166 2.54395C19.0481 2.53503 19.0774 2.5207 19.1064 2.50586C19.7173 2.50363 21.1875 2.49987 23.4199 2.5C24.9117 2.49991 26.7599 2.50191 28.9336 2.50781H40.0488C40.1833 2.50781 40.3166 2.53531 40.4414 2.58789C42.5248 3.46634 45.2063 4.54526 46.5938 5.10059C46.7963 5.18166 46.962 5.32384 47.0732 5.50098C47.1115 5.56191 47.1625 5.6139 47.2227 5.65332C48.1496 6.25996 49.1618 7.4055 50.1914 8.89453C51.2136 10.3729 52.2238 12.1466 53.1592 13.9619C55.0296 17.5918 56.58 21.353 57.3027 23.1777C57.4819 23.6303 57.3314 24.1461 56.9297 24.4414L48.3447 30.751C48.226 30.8382 48.0981 30.8967 47.9678 30.9307C47.7476 30.9881 47.5938 31.1875 47.5938 31.415V57.4961C47.5937 58.0505 47.1443 58.5 46.5898 58.5H12.7451C12.1907 58.5 11.7413 58.0505 11.7412 57.4961V31.292Z" stroke="#2F2E0C" stroke-linejoin="round"/>
<path d="M28.7357 2.50781H39.7533C38.842 7.40171 34.5795 11.1006 29.4652 11.1006C24.3504 11.1004 20.0876 7.40064 19.1771 2.50586C20.2657 2.50203 23.5873 2.49382 28.7357 2.50781Z" stroke="#2F2E0C" stroke-linejoin="round"/>
</g>
<defs>
<clipPath id="clip0_130_681">
<rect width="40" height="40" fill="white" transform="matrix(-1 0 0 1 40 0)"/>
</clipPath>
</defs>
</svg>
