<svg width="34" height="27" viewBox="0 0 34 27" fill="none" xmlns="http://www.w3.org/2000/svg">
<path d="M30.751 4.25H17.4182L13.0838 1C12.6504 0.676649 12.1245 0.501341 11.5838 0.5H3.25098C2.58794 0.5 1.95205 0.763392 1.48321 1.23223C1.01437 1.70107 0.750977 2.33696 0.750977 3V24.25C0.750977 24.913 1.01437 25.5489 1.48321 26.0178C1.95205 26.4866 2.58794 26.75 3.25098 26.75H30.89C31.5159 26.7492 32.116 26.5002 32.5586 26.0576C33.0011 25.615 33.2501 25.015 33.251 24.3891V6.75C33.251 6.08696 32.9876 5.45107 32.5187 4.98223C32.0499 4.51339 31.414 4.25 30.751 4.25ZM30.751 24.25H3.25098V3H11.5838L16.251 6.5C16.4673 6.66228 16.7305 6.75 17.001 6.75H30.751V24.25ZM22.001 15.5C22.001 15.8315 21.8693 16.1495 21.6349 16.3839C21.4004 16.6183 21.0825 16.75 20.751 16.75H18.251V19.25C18.251 19.5815 18.1193 19.8995 17.8849 20.1339C17.6504 20.3683 17.3325 20.5 17.001 20.5C16.6695 20.5 16.3515 20.3683 16.1171 20.1339C15.8827 19.8995 15.751 19.5815 15.751 19.25V16.75H13.251C12.9195 16.75 12.6015 16.6183 12.3671 16.3839C12.1327 16.1495 12.001 15.8315 12.001 15.5C12.001 15.1685 12.1327 14.8505 12.3671 14.6161C12.6015 14.3817 12.9195 14.25 13.251 14.25H15.751V11.75C15.751 11.4185 15.8827 11.1005 16.1171 10.8661C16.3515 10.6317 16.6695 10.5 17.001 10.5C17.3325 10.5 17.6504 10.6317 17.8849 10.8661C18.1193 11.1005 18.251 11.4185 18.251 11.75V14.25H20.751C21.0825 14.25 21.4004 14.3817 21.6349 14.6161C21.8693 14.8505 22.001 15.1685 22.001 15.5Z" fill="black"/>
</svg>
