<svg width="136" height="24" viewBox="0 0 136 24" fill="none" xmlns="http://www.w3.org/2000/svg">
<path fill-rule="evenodd" clip-rule="evenodd" d="M0.348779 1.74723C0 2.43175 0 3.32783 0 5.12V18.88C0 20.6722 0 21.5683 0.348779 22.2528C0.655574 22.8549 1.14511 23.3444 1.74723 23.6512C2.43175 24 3.32783 24 5.12 24H18.88C20.6722 24 21.5683 24 22.2528 23.6512C22.8549 23.3444 23.3444 22.8549 23.6512 22.2528C24 21.5683 24 20.6722 24 18.88V5.12C24 3.32783 24 2.43175 23.6512 1.74723C23.3444 1.14511 22.8549 0.655574 22.2528 0.348779C21.5683 0 20.6722 0 18.88 0H5.12C3.32783 0 2.43175 0 1.74723 0.348779C1.14511 0.655574 0.655574 1.14511 0.348779 1.74723ZM21.0001 10.2V4.8C21.0001 3.80595 20.1941 3 19.2001 3H4.80006C3.80601 3 3.00006 3.80595 3.00006 4.8V19.2C3.00006 20.194 3.80601 21 4.80006 21H10.2001C11.1941 21 12.0001 20.194 12.0001 19.2V13.8C12.0001 12.806 12.806 12 13.8001 12H19.2001C20.1941 12 21.0001 11.1941 21.0001 10.2Z" fill="#F7F7F7"/>
<path d="M28.5444 2.95215H36.9467C39.2169 2.95215 40.8869 3.58347 42.0352 4.68798C43.2355 5.81892 43.914 7.42329 43.914 9.31677C43.914 12.9199 41.435 15.4711 37.5993 15.4711H33.2416V21.7569H28.5447V2.95215H28.5444ZM36.6596 11.7889C38.3296 11.7889 39.2691 10.7895 39.2691 9.29034C39.2691 7.79122 38.3036 6.8708 36.6596 6.8708H33.2412V11.7889H36.6596Z" fill="#F7F7F7"/>
<path d="M45.2968 8.29109H49.3676V10.3951H49.4458C50.3853 8.79071 51.4811 8.08057 53.0989 8.08057C53.4904 8.08057 53.7513 8.10676 53.9339 8.18583V11.8678H53.8295C51.2201 11.4996 49.55 12.7882 49.55 15.7076V21.7567H45.2966V8.29109H45.2968Z" fill="#F7F7F7"/>
<path d="M55.2906 2.95215H59.544V6.42381H55.2906V2.95215ZM55.2906 8.29109H59.544V21.7569H55.2906V8.29109Z" fill="#F7F7F7"/>
<path d="M61.5792 8.29085H65.676V10.1319H65.7542C66.7459 8.68545 68.0244 7.89648 69.877 7.89648C72.7995 7.89648 74.5218 10.0005 74.5218 12.9987V21.7567H70.2683V13.8665C70.2683 12.4462 69.5637 11.4732 68.1808 11.4732C66.7979 11.4732 65.8322 12.6567 65.8322 14.3135V21.7564H61.5787V8.29085H61.5792Z" fill="#F7F7F7"/>
<path d="M77.2354 18.2062V10.9736H75.461V8.2909H77.2354V4.03027H81.3845V8.2909H83.8113V10.9736H81.3845V17.2856C81.3845 18.3377 81.9586 18.6006 82.8718 18.6006C83.2371 18.6006 83.6546 18.5744 83.8113 18.5744V21.7041C83.446 21.8094 82.637 21.9146 81.4889 21.9146C79.0099 21.9146 77.2354 21.0992 77.2354 18.2062Z" fill="#F7F7F7"/>
<path d="M85.351 8.29109H89.4216V10.3951H89.4998C90.4392 8.79071 91.5351 8.08057 93.1528 8.08057C93.5444 8.08057 93.8052 8.10676 93.9878 8.18583V11.8678H93.8834C91.274 11.4996 89.604 12.7882 89.604 15.7076V21.7567H85.3505V8.29109H85.351Z" fill="#F7F7F7"/>
<path d="M94.4837 15.0507C94.4837 11.0004 97.354 7.92334 101.633 7.92334C105.913 7.92334 108.757 11.0004 108.757 15.0507C108.757 19.1011 105.939 22.1781 101.633 22.1781C97.3278 22.1781 94.4837 19.1011 94.4837 15.0507ZM104.452 15.0507C104.452 12.6048 103.46 10.948 101.607 10.948C99.7548 10.948 98.7894 12.605 98.7894 15.0507C98.7894 17.4965 99.7548 19.1273 101.607 19.1273C103.46 19.1273 104.452 17.4967 104.452 15.0507Z" fill="#F7F7F7"/>
<path d="M108.575 8.29004H112.959L114.785 14.3653C115.177 15.7065 115.516 17.0742 115.516 17.0742H115.568C115.568 17.0742 115.907 15.7065 116.299 14.3653L118.151 8.29004H122.405L117.786 21.7559H113.194L108.575 8.29004Z" fill="#F7F7F7"/>
<path d="M122.222 14.9977C122.222 10.9738 125.014 7.89648 129.085 7.89648C130.99 7.89648 132.503 8.5278 133.651 9.57968C135.243 11.0526 136.026 13.3933 136 16.1284H126.397C126.658 17.943 127.65 19.074 129.398 19.074C130.52 19.074 131.251 18.5744 131.616 17.7328H135.765C135.478 18.9425 134.695 20.0997 133.521 20.9151C132.399 21.7041 131.042 22.1513 129.346 22.1513C124.936 22.1513 122.222 19.0742 122.222 14.9977H122.222ZM131.694 13.5774C131.538 11.973 130.546 10.9473 129.163 10.9473C127.545 10.9473 126.71 11.973 126.423 13.5774H131.694Z" fill="#F7F7F7"/>
</svg>
